<svg width="512" height="512" viewBox="0 0 512 512" fill="none" xmlns="http://www.w3.org/2000/svg" role="img" aria-labelledby="title desc">
  <title id="title">BaseBuddy icon</title>
  <desc id="desc">A minimal stacked layer mark for BaseBuddy.</desc>
  <defs>
    <linearGradient id="basebuddyIconFill" x1="256" y1="92" x2="256" y2="404" gradientUnits="userSpaceOnUse">
      <stop offset="0" stop-color="#FFFFFF"/>
      <stop offset="1" stop-color="#ECEBE7"/>
    </linearGradient>
  </defs>
  <g transform="translate(256 256) scale(1.16) translate(-256 -256)">
    <path
      d="M236.5 103.7C248.6 96.8 263.4 96.8 275.5 103.7L374.8 160.4C386.2 166.9 386.2 183.3 374.8 189.8L275.5 246.5C263.4 253.4 248.6 253.4 236.5 246.5L137.2 189.8C125.8 183.3 125.8 166.9 137.2 160.4L236.5 103.7Z"
      fill="url(#basebuddyIconFill)"
    />
    <path
      d="M128 237.1C128 226 139.9 219 149.5 224.6L236.6 275.3C248.6 282.3 263.4 282.3 275.4 275.3L362.5 224.6C372.1 219 384 226 384 237.1V255.1C384 262.4 380.1 269.2 373.8 272.8L275.6 329.3C263.5 336.3 248.5 336.3 236.4 329.3L138.2 272.8C131.9 269.2 128 262.4 128 255.1V237.1Z"
      fill="url(#basebuddyIconFill)"
    />
    <path
      d="M128 310.1C128 299 139.9 292 149.5 297.6L236.6 348.3C248.6 355.3 263.4 355.3 275.4 348.3L362.5 297.6C372.1 292 384 299 384 310.1V328.1C384 335.4 380.1 342.2 373.8 345.8L275.6 402.3C263.5 409.3 248.5 409.3 236.4 402.3L138.2 345.8C131.9 342.2 128 335.4 128 328.1V310.1Z"
      fill="url(#basebuddyIconFill)"
    />
  </g>
</svg>
